REM DIRINDEX 1\2,1\3,1\4,1\5,1\6
REM DIRNAME "folder01","folder02","folder03","folder04","folder05","folder06"
TITLE ""
FILE "Disc6Track19.mp3" MP3
  TRACK 01 AUDIO
    TITLE "2:cjc161_11120"
    INDEX 01 00:00:00
  TRACK 02 AUDIO
    TITLE "0:"
    INDEX 01 00:03:50
  TRACK 03 AUDIO
    TITLE "3:cjc161_11121"
    INDEX 01 00:04:04
  TRACK 04 AUDIO
    TITLE "4:cjc161_11122"
    INDEX 01 00:05:08
  TRACK 05 AUDIO
    TITLE "5:cjc161_11123"
    INDEX 01 00:09:03
  TRACK 06 AUDIO
    TITLE "6:cjc161_11124"
    INDEX 01 00:10:03
  TRACK 07 AUDIO
    TITLE "0:"
    INDEX 01 00:14:10
  TRACK 08 AUDIO
    TITLE "3:cjc161_11125"
    INDEX 01 00:14:42
  TRACK 09 AUDIO
    TITLE "4:cjc161_11126"
    INDEX 01 00:15:59
  TRACK 10 AUDIO
    TITLE "5:cjc161_11127"
    INDEX 01 00:16:64
  TRACK 11 AUDIO
    TITLE "6:cjc161_11128"
    INDEX 01 00:18:06
  TRACK 12 AUDIO
    TITLE "0:"
    INDEX 01 00:20:19
  TRACK 13 AUDIO
    TITLE "3:cjc161_11129"
    INDEX 01 00:20:50
  TRACK 14 AUDIO
    TITLE "4:cjc161_11130"
    INDEX 01 00:21:59
  TRACK 15 AUDIO
    TITLE "5:cjc161_11131"
    INDEX 01 00:26:18
  TRACK 16 AUDIO
    TITLE "6:cjc161_11132"
    INDEX 01 00:27:25
  TRACK 17 AUDIO
    TITLE "0:"
    INDEX 01 00:32:01
  TRACK 18 AUDIO
    TITLE "3:cjc161_11133"
    INDEX 01 00:32:24
  TRACK 19 AUDIO
    TITLE "4:cjc161_11134"
    INDEX 01 00:33:43
  TRACK 20 AUDIO
    TITLE "5:cjc161_11135"
    INDEX 01 00:36:26
  TRACK 21 AUDIO
    TITLE "6:cjc161_11136"
    INDEX 01 00:37:45
  TRACK 22 AUDIO
    TITLE "0:"
    INDEX 01 00:42:34
  TRACK 23 AUDIO
    TITLE "3:cjc161_11137"
    INDEX 01 00:42:64
  TRACK 24 AUDIO
    TITLE "4:cjc161_11138"
    INDEX 01 00:44:10
  TRACK 25 AUDIO
    TITLE "5:cjc161_11139"
    INDEX 01 00:46:44
  TRACK 26 AUDIO
    TITLE "6:cjc161_11140"
    INDEX 01 00:47:65
  TRACK 27 AUDIO
    TITLE "0:"
    INDEX 01 00:51:59
  TRACK 28 AUDIO
    TITLE "3:cjc161_11141"
    INDEX 01 00:52:13
  TRACK 29 AUDIO
    TITLE "4:cjc161_11142"
    INDEX 01 00:53:24
  TRACK 30 AUDIO
    TITLE "5:cjc161_11143"
    INDEX 01 00:57:10
  TRACK 31 AUDIO
    TITLE "6:cjc161_11144"
    INDEX 01 00:58:23
  TRACK 32 AUDIO
    TITLE "0:"
    INDEX 01 01:03:72
  TRACK 33 AUDIO
    TITLE "3:cjc161_11145"
    INDEX 01 01:04:26
  TRACK 34 AUDIO
    TITLE "4:cjc161_11146"
    INDEX 01 01:05:29
  TRACK 35 AUDIO
    TITLE "5:cjc161_11147"
    INDEX 01 01:07:30
  TRACK 36 AUDIO
    TITLE "6:cjc161_11148"
    INDEX 01 01:08:32
  TRACK 37 AUDIO
    TITLE "0:"
    INDEX 01 01:14:38
  TRACK 38 AUDIO
    TITLE "3:cjc161_11149"
    INDEX 01 01:14:69
  TRACK 39 AUDIO
    TITLE "4:cjc161_11150"
    INDEX 01 01:16:12
  TRACK 40 AUDIO
    TITLE "5:cjc161_11151"
    INDEX 01 01:19:59
  TRACK 41 AUDIO
    TITLE "6:cjc161_11152"
    INDEX 01 01:20:74
  TRACK 42 AUDIO
    TITLE "0:"
    INDEX 01 01:27:25
  TRACK 43 AUDIO
    TITLE "3:cjc161_11153"
    INDEX 01 01:27:54
  TRACK 44 AUDIO
    TITLE "4:cjc161_11154"
    INDEX 01 01:28:62
  TRACK 45 AUDIO
    TITLE "5:cjc161_11155"
    INDEX 01 01:30:74
  TRACK 46 AUDIO
    TITLE "6:cjc161_11156"
    INDEX 01 01:32:07
  TRACK 47 AUDIO
    TITLE "0:"
    INDEX 01 01:35:07
  TRACK 48 AUDIO
    TITLE "3:cjc161_11157"
    INDEX 01 01:35:36
  TRACK 49 AUDIO
    TITLE "4:cjc161_11158"
    INDEX 01 01:36:44
  TRACK 50 AUDIO
    TITLE "5:cjc161_11159"
    INDEX 01 01:38:50
  TRACK 51 AUDIO
    TITLE "6:cjc161_11160"
    INDEX 01 01:39:56
  TRACK 52 AUDIO
    TITLE "0:"
    INDEX 01 01:45:11
  TRACK 53 AUDIO
    TITLE "3:cjc161_11161"
    INDEX 01 01:45:45
  TRACK 54 AUDIO
    TITLE "4:cjc161_11162"
    INDEX 01 01:46:58
  TRACK 55 AUDIO
    TITLE "5:cjc161_11163"
    INDEX 01 01:50:06
  TRACK 56 AUDIO
    TITLE "6:cjc161_11164"
    INDEX 01 01:51:16
  TRACK 57 AUDIO
    TITLE "0:"
    INDEX 01 01:55:08
  TRACK 58 AUDIO
    TITLE "3:cjc161_11165"
    INDEX 01 01:55:35
  TRACK 59 AUDIO
    TITLE "4:cjc161_11166"
    INDEX 01 01:56:54
  TRACK 60 AUDIO
    TITLE "5:cjc161_11167"
    INDEX 01 01:58:47
  TRACK 61 AUDIO
    TITLE "6:cjc161_11168"
    INDEX 01 01:59:62
  TRACK 62 AUDIO
    TITLE "0:"
    INDEX 01 02:01:63
  TRACK 63 AUDIO
    TITLE "3:cjc161_11169"
    INDEX 01 02:02:18
  TRACK 64 AUDIO
    TITLE "4:cjc161_11170"
    INDEX 01 02:03:29
  TRACK 65 AUDIO
    TITLE "5:cjc161_11171"
    INDEX 01 02:07:27
  TRACK 66 AUDIO
    TITLE "6:cjc161_11172"
    INDEX 01 02:08:34
  TRACK 67 AUDIO
    TITLE "0:"
    INDEX 01 02:11:24
